<svg viewBox="0 0 512 512" fill="none" xmlns="http://www.w3.org/2000/svg">
<path d="M229.448 106.16L80.3996 364.3C77.7072 368.962 76.2896 374.25 76.2891 379.633C76.2886 385.016 77.7053 390.305 80.3967 394.967C83.0882 399.629 86.9596 403.501 91.6217 406.192C96.2838 408.884 101.572 410.3 106.956 410.3H405.028C410.411 410.3 415.699 408.884 420.361 406.192C425.024 403.501 428.895 399.629 431.586 394.967C434.278 390.305 435.695 385.016 435.694 379.633C435.694 374.25 434.276 368.962 431.584 364.3L282.552 106.16C279.861 101.499 275.99 97.6289 271.329 94.9381C266.668 92.2472 261.381 90.8306 256 90.8306C250.618 90.8306 245.331 92.2472 240.67 94.9381C236.009 97.6289 232.139 101.499 229.448 106.16V106.16Z" fill="#E45C55"/>
<path d="M257.944 185.776H254.056C244.483 185.776 236.724 193.536 236.724 203.108V285.952C236.724 295.524 244.483 303.284 254.056 303.284H257.944C267.516 303.284 275.276 295.524 275.276 285.952V203.108C275.276 193.536 267.516 185.776 257.944 185.776Z" fill="white"/>
<path d="M256 368.988C266.645 368.988 275.276 360.358 275.276 349.712C275.276 339.066 266.645 330.436 256 330.436C245.354 330.436 236.724 339.066 236.724 349.712C236.724 360.358 245.354 368.988 256 368.988Z" fill="white"/>
</svg>
