<svg viewBox="0 0 456 456" fill="none" xmlns="http://www.w3.org/2000/svg">
<g clip-path="url(#clip0)">
<path d="M405.493 412.764C335.804 469.653 118.204 469.653 49.9367 412.764C-19.7523 355.875 -12.6413 112.675 49.9367 48.675C112.515 -15.325 342.915 -15.325 405.493 48.675C468.071 112.675 475.182 355.876 405.493 412.764Z" fill="#5CBB6A"/>
<g opacity="0.2">
<path opacity="0.2" d="M229.138 313.209C166.56 362.987 96.8714 388.587 31.4494 390.009C-16.9066 307.52 -6.95059 106.987 49.9384 48.6759C101.138 -3.94609 261.849 -13.9021 354.294 18.8089C377.049 112.676 330.116 232.142 229.138 313.209Z" fill="white"/>
</g>
<path d="M195.004 354.453C185.048 354.453 175.093 350.186 169.404 341.653L89.7598 239.253C78.3818 225.031 81.2268 205.12 95.4488 193.742C109.671 182.364 129.582 185.209 140.96 199.431L195.004 269.12L314.471 114.098C325.849 99.876 345.76 97.031 359.982 108.409C374.204 119.787 377.049 139.698 365.671 153.92L220.604 341.653C213.493 348.764 204.96 354.453 195.004 354.453Z" fill="white"/>
</g>
<defs>
<clipPath id="clip0">
<rect width="455.431" height="455.431" fill="white"/>
</clipPath>
</defs>
</svg>
