<svg  viewBox="0 0 26 16"  xmlns="http://www.w3.org/2000/svg">
<path d="M9.50335 15.9673V15.03H9.7984C10.0525 15.03 10.2898 15.0116 10.5117 14.9763C10.7347 14.9395 10.9269 14.8643 11.0901 14.7523C11.2532 14.6403 11.3846 14.4777 11.4833 14.2676C11.5815 14.0569 11.63 13.7772 11.63 13.4274V8.19688H4.37047V13.4274C4.37047 13.7767 4.41905 14.0559 4.51723 14.2681C4.6154 14.4777 4.74631 14.6409 4.90994 14.7523C5.07357 14.8653 5.26737 14.939 5.49287 14.9763C5.71889 15.0121 5.95411 15.0305 6.2016 15.0305H6.49664V15.9678H0V15.0305H0.283797C0.537935 15.0305 0.7752 15.0121 0.997635 14.9763C1.21956 14.94 1.41336 14.8653 1.58108 14.7523C1.74778 14.6393 1.87868 14.4777 1.9743 14.2681C2.06839 14.0574 2.11492 13.7767 2.11492 13.4274V2.48464C2.11492 2.15789 2.06584 1.89506 1.96817 1.69461C1.86897 1.49416 1.73602 1.34025 1.56932 1.23133C1.40211 1.12242 1.20831 1.05134 0.985363 1.01861C0.764973 0.985374 0.530265 0.969523 0.283285 0.969523H0V0.0322266H6.49664V0.969523H6.2016C5.95462 0.969523 5.7194 0.98742 5.49287 1.02424C5.26788 1.06003 5.07408 1.1352 4.90994 1.24769C4.74682 1.36019 4.61592 1.52178 4.51723 1.73296C4.41905 1.94312 4.37047 2.22334 4.37047 2.57208V7.08368H11.629V2.57208C11.629 2.22283 11.5799 1.94312 11.4823 1.73245C11.3846 1.52178 11.2532 1.35968 11.0895 1.24769C10.9259 1.1352 10.7337 1.06054 10.5112 1.02424C10.2888 0.98742 10.0525 0.969523 9.79738 0.969523H9.50233V0.0322266H15.999V0.969523H15.7162C15.4616 0.969523 15.2248 0.98742 15.0024 1.02424C14.7804 1.06003 14.5872 1.1352 14.4189 1.24769C14.2522 1.36019 14.1213 1.52178 14.0262 1.73245C13.9311 1.94261 13.8846 2.22283 13.8846 2.57208V13.5363C13.8846 13.8636 13.9342 14.127 14.0313 14.3264C14.1295 14.5268 14.263 14.6777 14.4297 14.7784C14.5964 14.8807 14.7902 14.9477 15.0131 14.9809C15.235 15.0136 15.4692 15.03 15.7152 15.03H15.9995V15.9673H9.50335V15.9673Z"/>
<path d="M17.5 15.8C17.5521 14.8365 17.75 13.998 18.0938 13.2844C18.4427 12.5709 19.1198 11.9224 20.125 11.3391L21.625 10.4719C22.2969 10.0813 22.7682 9.74797 23.0391 9.47192C23.4661 9.03963 23.6797 8.54484 23.6797 7.98755C23.6797 7.33651 23.4844 6.82088 23.0938 6.44067C22.7031 6.05526 22.1823 5.86255 21.5312 5.86255C20.5677 5.86255 19.901 6.22713 19.5312 6.9563C19.3333 7.34692 19.224 7.88859 19.2031 8.5813H17.7734C17.7891 7.60734 17.9688 6.81307 18.3125 6.19849C18.9219 5.11515 19.9974 4.57349 21.5391 4.57349C22.8203 4.57349 23.7552 4.91984 24.3438 5.61255C24.9375 6.30526 25.2344 7.07609 25.2344 7.92505C25.2344 8.82088 24.9193 9.58651 24.2891 10.2219C23.9245 10.5917 23.2708 11.0396 22.3281 11.5657L21.2578 12.1594C20.7474 12.4407 20.3464 12.7089 20.0547 12.9641C19.5339 13.4172 19.2057 13.9198 19.0703 14.4719H25.1797V15.8H17.5Z"/>
</svg>
