<svg  viewBox="0 0 26 17"  xmlns="http://www.w3.org/2000/svg">
<path d="M9.50335 15.9673V15.03H9.7984C10.0525 15.03 10.2898 15.0116 10.5117 14.9763C10.7347 14.9395 10.9269 14.8643 11.0901 14.7523C11.2532 14.6403 11.3846 14.4777 11.4833 14.2676C11.5815 14.0569 11.63 13.7772 11.63 13.4274V8.19688H4.37047V13.4274C4.37047 13.7767 4.41905 14.0559 4.51723 14.2681C4.6154 14.4777 4.74631 14.6409 4.90994 14.7523C5.07357 14.8653 5.26737 14.939 5.49287 14.9763C5.71889 15.0121 5.95411 15.0305 6.2016 15.0305H6.49664V15.9678H0V15.0305H0.283797C0.537935 15.0305 0.7752 15.0121 0.997635 14.9763C1.21956 14.94 1.41336 14.8653 1.58108 14.7523C1.74778 14.6393 1.87868 14.4777 1.9743 14.2681C2.06839 14.0574 2.11492 13.7767 2.11492 13.4274V2.48464C2.11492 2.15789 2.06584 1.89506 1.96817 1.69461C1.86897 1.49416 1.73602 1.34025 1.56932 1.23133C1.40211 1.12242 1.20831 1.05134 0.985363 1.01861C0.764973 0.985374 0.530265 0.969523 0.283285 0.969523H0V0.0322266H6.49664V0.969523H6.2016C5.95462 0.969523 5.7194 0.98742 5.49287 1.02424C5.26788 1.06003 5.07408 1.1352 4.90994 1.24769C4.74682 1.36019 4.61592 1.52178 4.51723 1.73296C4.41905 1.94312 4.37047 2.22334 4.37047 2.57208V7.08368H11.629V2.57208C11.629 2.22283 11.5799 1.94312 11.4823 1.73245C11.3846 1.52178 11.2532 1.35968 11.0895 1.24769C10.9259 1.1352 10.7337 1.06054 10.5112 1.02424C10.2888 0.98742 10.0525 0.969523 9.79738 0.969523H9.50233V0.0322266H15.999V0.969523H15.7162C15.4616 0.969523 15.2248 0.98742 15.0024 1.02424C14.7804 1.06003 14.5872 1.1352 14.4189 1.24769C14.2522 1.36019 14.1213 1.52178 14.0262 1.73245C13.9311 1.94261 13.8846 2.22283 13.8846 2.57208V13.5363C13.8846 13.8636 13.9342 14.127 14.0313 14.3264C14.1295 14.5268 14.263 14.6777 14.4297 14.7784C14.5964 14.8807 14.7902 14.9477 15.0131 14.9809C15.235 15.0136 15.4692 15.03 15.7152 15.03H15.9995V15.9673H9.50335V15.9673Z" />
<path d="M21.1562 16.1047C19.8333 16.1047 18.8724 15.7428 18.2734 15.0188C17.6797 14.2896 17.3828 13.4042 17.3828 12.3625H18.8516C18.9141 13.0865 19.0495 13.6125 19.2578 13.9407C19.6224 14.5292 20.2812 14.8235 21.2344 14.8235C21.974 14.8235 22.5677 14.6256 23.0156 14.2297C23.4635 13.8339 23.6875 13.3235 23.6875 12.6985C23.6875 11.9277 23.4505 11.3886 22.9766 11.0813C22.5078 10.774 21.8542 10.6204 21.0156 10.6204C20.9219 10.6204 20.8255 10.623 20.7266 10.6282C20.6328 10.6282 20.5365 10.6308 20.4375 10.636V9.3938C20.5833 9.40942 20.7057 9.41984 20.8047 9.42505C20.9036 9.43026 21.0104 9.43286 21.125 9.43286C21.651 9.43286 22.0833 9.34953 22.4219 9.18286C23.0156 8.89119 23.3125 8.37036 23.3125 7.62036C23.3125 7.06307 23.1146 6.63338 22.7188 6.3313C22.3229 6.02922 21.862 5.87817 21.3359 5.87817C20.3984 5.87817 19.75 6.19067 19.3906 6.81567C19.1927 7.15942 19.0807 7.64901 19.0547 8.28442H17.6641C17.6641 7.45109 17.8307 6.74276 18.1641 6.15942C18.737 5.11776 19.7448 4.59692 21.1875 4.59692C22.3281 4.59692 23.2109 4.85213 23.8359 5.36255C24.4609 5.86776 24.7734 6.60213 24.7734 7.56567C24.7734 8.25317 24.5885 8.81047 24.2188 9.23755C23.9896 9.50317 23.6927 9.71151 23.3281 9.86255C23.9167 10.024 24.375 10.3365 24.7031 10.8C25.0365 11.2584 25.2031 11.8209 25.2031 12.4875C25.2031 13.5553 24.8516 14.425 24.1484 15.0969C23.4453 15.7688 22.4479 16.1047 21.1562 16.1047Z" />
</svg>
