<svg  viewBox="0 0 308 40" fill="none" xmlns="http://www.w3.org/2000/svg">
<path d="M3.57094 27.32L1.05094 31.32C1.8776 31.96 2.77094 32.5467 3.73094 33.08C4.69094 33.5867 5.73094 33.9867 6.85094 34.28C7.9976 34.6 9.22427 34.76 10.5309 34.76C12.7443 34.76 14.4509 34.2667 15.6509 33.28C16.8776 32.2667 17.4909 30.7733 17.4909 28.8C17.4909 27.6533 17.2376 26.7333 16.7309 26.04C16.2509 25.3467 15.5976 24.7733 14.7709 24.32C13.9709 23.8667 13.0909 23.4667 12.1309 23.12C11.2243 22.7733 10.4509 22.4933 9.81094 22.28C9.1976 22.04 8.7176 21.7867 8.37094 21.52C8.05094 21.2533 7.89094 20.92 7.89094 20.52C7.89094 20.1733 8.02427 19.8933 8.29094 19.68C8.58427 19.4667 9.01094 19.36 9.57094 19.36C10.3976 19.36 11.3043 19.6 12.2909 20.08C13.2776 20.5333 14.1576 21.12 14.9309 21.84L17.0909 17.92C16.3709 17.3867 15.5976 16.92 14.7709 16.52C13.9709 16.12 13.1043 15.8 12.1709 15.56C11.2643 15.32 10.2776 15.2 9.21094 15.2C7.8776 15.2 6.69094 15.4 5.65094 15.8C4.6376 16.2 3.82427 16.7867 3.21094 17.56C2.62427 18.3333 2.33094 19.28 2.33094 20.4C2.33094 21.5733 2.58427 22.5333 3.09094 23.28C3.5976 24.0267 4.2376 24.6267 5.01094 25.08C5.81094 25.5067 6.65094 25.88 7.53094 26.2C8.5176 26.4933 9.29094 26.7733 9.85094 27.04C10.4376 27.3067 10.8509 27.5867 11.0909 27.88C11.3309 28.1467 11.4509 28.48 11.4509 28.88C11.4509 29.3067 11.3043 29.6533 11.0109 29.92C10.7176 30.1867 10.2643 30.32 9.65094 30.32C9.22427 30.32 8.7176 30.24 8.13094 30.08C7.54427 29.8933 6.86427 29.5867 6.09094 29.16C5.34427 28.7067 4.50427 28.0933 3.57094 27.32ZM25.8931 24.8C25.8931 23.8933 26.1065 23.08 26.5331 22.36C26.9598 21.64 27.5465 21.0667 28.2931 20.64C29.0665 20.2133 29.8931 20 30.7731 20C31.4398 20 32.1198 20.1067 32.8131 20.32C33.5065 20.5333 34.1465 20.84 34.7331 21.24C35.3465 21.64 35.8398 22.1333 36.2131 22.72V16.8C35.5731 16.3467 34.7731 15.9733 33.8131 15.68C32.8531 15.36 31.6798 15.2 30.2931 15.2C28.2665 15.2 26.4398 15.6 24.8131 16.4C23.2131 17.2 21.9465 18.32 21.0131 19.76C20.1065 21.1733 19.6531 22.8533 19.6531 24.8C19.6531 26.72 20.1065 28.4 21.0131 29.84C21.9465 31.28 23.2131 32.4 24.8131 33.2C26.4398 34 28.2665 34.4 30.2931 34.4C31.6798 34.4 32.8531 34.2533 33.8131 33.96C34.7731 33.64 35.5731 33.2267 36.2131 32.72V26.84C35.8398 27.4267 35.3598 27.92 34.7731 28.32C34.2131 28.72 33.5865 29.04 32.8931 29.28C32.2265 29.4933 31.5198 29.6 30.7731 29.6C29.8931 29.6 29.0665 29.4 28.2931 29C27.5465 28.6 26.9598 28.0533 26.5331 27.36C26.1065 26.64 25.8931 25.7867 25.8931 24.8ZM40.2188 8.68C40.2188 9.64 40.5654 10.4267 41.2588 11.04C41.9521 11.6533 42.7788 11.96 43.7388 11.96C44.7254 11.96 45.5521 11.6533 46.2188 11.04C46.9121 10.4267 47.2588 9.64 47.2588 8.68C47.2588 7.72 46.9121 6.94667 46.2188 6.36C45.5521 5.74666 44.7254 5.44 43.7388 5.44C42.7788 5.44 41.9521 5.74666 41.2588 6.36C40.5654 6.94667 40.2188 7.72 40.2188 8.68ZM40.8188 15.6V34H46.6588V15.6H40.8188ZM60.9934 34.4C63.3401 34.4 65.3268 33.9467 66.9534 33.04C68.6068 32.1333 69.9134 30.7733 70.8734 28.96L65.4734 27.64C65.0201 28.44 64.4068 29.04 63.6334 29.44C62.8868 29.84 61.9801 30.04 60.9134 30.04C59.9801 30.04 59.1934 29.84 58.5534 29.44C57.9134 29.0133 57.4334 28.4 57.1134 27.6C56.7934 26.8 56.6334 25.84 56.6334 24.72C56.6601 23.4933 56.8201 22.48 57.1134 21.68C57.4334 20.8533 57.9001 20.24 58.5134 19.84C59.1268 19.44 59.8868 19.24 60.7934 19.24C61.5134 19.24 62.1401 19.4 62.6734 19.72C63.2068 20.04 63.6201 20.4933 63.9134 21.08C64.2068 21.6667 64.3534 22.36 64.3534 23.16C64.3534 23.3467 64.3001 23.5867 64.1934 23.88C64.1134 24.1467 64.0068 24.3733 63.8734 24.56L65.3134 22.72H53.9534V26.08H70.7534C70.8068 25.8933 70.8334 25.6667 70.8334 25.4C70.8334 25.1067 70.8334 24.8133 70.8334 24.52C70.8334 22.5467 70.4468 20.8667 69.6734 19.48C68.9001 18.0933 67.7801 17.04 66.3134 16.32C64.8468 15.5733 63.0468 15.2 60.9134 15.2C58.7801 15.2 56.9268 15.5867 55.3534 16.36C53.8068 17.1333 52.6201 18.24 51.7934 19.68C50.9668 21.12 50.5534 22.8267 50.5534 24.8C50.5534 26.7467 50.9801 28.44 51.8334 29.88C52.6868 31.32 53.8868 32.44 55.4334 33.24C57.0068 34.0133 58.8601 34.4 60.9934 34.4ZM86.5231 22.8V34H92.8031V22.16C92.8031 19.9467 92.2831 18.2267 91.2431 17C90.2031 15.7733 88.5365 15.16 86.2431 15.16C84.8831 15.16 83.7365 15.44 82.8031 16C81.8965 16.56 81.1765 17.3467 80.6431 18.36V15.6H74.5631V34H80.6431V22.8C80.6431 22.08 80.7765 21.4667 81.0431 20.96C81.3098 20.4533 81.6831 20.0667 82.1631 19.8C82.6431 19.5333 83.2031 19.4 83.8431 19.4C84.8031 19.4 85.4831 19.6933 85.8831 20.28C86.3098 20.8667 86.5231 21.7067 86.5231 22.8ZM95.4109 15.6V20.6H107.731V15.6H95.4109ZM98.6509 9.2V34H104.451V9.2H98.6509ZM109.945 8.68C109.945 9.64 110.292 10.4267 110.985 11.04C111.679 11.6533 112.505 11.96 113.465 11.96C114.452 11.96 115.279 11.6533 115.945 11.04C116.639 10.4267 116.985 9.64 116.985 8.68C116.985 7.72 116.639 6.94667 115.945 6.36C115.279 5.74666 114.452 5.44 113.465 5.44C112.505 5.44 111.679 5.74666 110.985 6.36C110.292 6.94667 109.945 7.72 109.945 8.68ZM110.545 15.6V34H116.385V15.6H110.545ZM119.72 15.6V20.6H132.28V15.6H119.72ZM131.6 8.6L134.04 4.16C133.773 3.89333 133.413 3.61333 132.96 3.32C132.507 3 131.947 2.73333 131.28 2.52C130.64 2.28 129.867 2.16 128.96 2.16C127.44 2.16 126.16 2.42666 125.12 2.96C124.107 3.49333 123.333 4.25333 122.8 5.24C122.293 6.22667 122.04 7.41333 122.04 8.8V34H127.84V10.32C127.84 9.68 127.92 9.16 128.08 8.76C128.24 8.36 128.453 8.06667 128.72 7.88C129.013 7.69333 129.36 7.6 129.76 7.6C130.107 7.6 130.427 7.68 130.72 7.84C131.04 8 131.333 8.25333 131.6 8.6ZM134.75 8.68C134.75 9.64 135.097 10.4267 135.79 11.04C136.483 11.6533 137.31 11.96 138.27 11.96C139.257 11.96 140.083 11.6533 140.75 11.04C141.443 10.4267 141.79 9.64 141.79 8.68C141.79 7.72 141.443 6.94667 140.75 6.36C140.083 5.74666 139.257 5.44 138.27 5.44C137.31 5.44 136.483 5.74666 135.79 6.36C135.097 6.94667 134.75 7.72 134.75 8.68ZM135.35 15.6V34H141.19V15.6H135.35ZM151.245 24.8C151.245 23.8933 151.458 23.08 151.885 22.36C152.311 21.64 152.898 21.0667 153.645 20.64C154.418 20.2133 155.245 20 156.125 20C156.791 20 157.471 20.1067 158.165 20.32C158.858 20.5333 159.498 20.84 160.085 21.24C160.698 21.64 161.191 22.1333 161.565 22.72V16.8C160.925 16.3467 160.125 15.9733 159.165 15.68C158.205 15.36 157.031 15.2 155.645 15.2C153.618 15.2 151.791 15.6 150.165 16.4C148.565 17.2 147.298 18.32 146.365 19.76C145.458 21.1733 145.005 22.8533 145.005 24.8C145.005 26.72 145.458 28.4 146.365 29.84C147.298 31.28 148.565 32.4 150.165 33.2C151.791 34 153.618 34.4 155.645 34.4C157.031 34.4 158.205 34.2533 159.165 33.96C160.125 33.64 160.925 33.2267 161.565 32.72V26.84C161.191 27.4267 160.711 27.92 160.125 28.32C159.565 28.72 158.938 29.04 158.245 29.28C157.578 29.4933 156.871 29.6 156.125 29.6C155.245 29.6 154.418 29.4 153.645 29C152.898 28.6 152.311 28.0533 151.885 27.36C151.458 26.64 151.245 25.7867 151.245 24.8ZM172.01 2.8H165.93V34H172.01V2.8ZM177.89 22.8V34H183.93V21.92C183.93 20.4 183.717 19.12 183.29 18.08C182.864 17.04 182.184 16.2533 181.25 15.72C180.344 15.1867 179.13 14.92 177.61 14.92C176.09 14.92 174.837 15.28 173.85 16C172.89 16.6933 172.17 17.64 171.69 18.84C171.21 20.0133 170.97 21.3333 170.97 22.8H172.01C172.01 22.08 172.144 21.48 172.41 21C172.677 20.4933 173.05 20.1067 173.53 19.84C174.01 19.5467 174.57 19.4 175.21 19.4C176.197 19.4 176.89 19.6933 177.29 20.28C177.69 20.8667 177.89 21.7067 177.89 22.8ZM194.985 26.8V15.6H188.665V27.44C188.665 29.6267 189.185 31.3467 190.225 32.6C191.291 33.8267 192.971 34.44 195.265 34.44C196.625 34.44 197.758 34.16 198.665 33.6C199.571 33.0133 200.305 32.2267 200.865 31.24V34H206.905V15.6H200.865V26.8C200.865 27.52 200.731 28.1333 200.465 28.64C200.198 29.1467 199.825 29.5333 199.345 29.8C198.891 30.0667 198.331 30.2 197.665 30.2C196.678 30.2 195.985 29.9067 195.585 29.32C195.185 28.7067 194.985 27.8667 194.985 26.8ZM217.673 2.8H211.633V34H217.673V2.8ZM232.713 24.8C232.713 22.72 232.286 20.9733 231.433 19.56C230.606 18.1467 229.526 17.0667 228.193 16.32C226.886 15.5733 225.473 15.2 223.953 15.2C222.433 15.2 221.073 15.5867 219.872 16.36C218.673 17.1333 217.726 18.24 217.033 19.68C216.339 21.0933 215.993 22.8 215.993 24.8C215.993 26.7733 216.339 28.48 217.033 29.92C217.726 31.36 218.673 32.4667 219.872 33.24C221.073 34.0133 222.433 34.4 223.953 34.4C225.473 34.4 226.886 34.0267 228.193 33.28C229.526 32.5333 230.606 31.4533 231.433 30.04C232.286 28.6 232.713 26.8533 232.713 24.8ZM226.353 24.8C226.353 25.76 226.153 26.6 225.753 27.32C225.353 28.0133 224.819 28.56 224.153 28.96C223.486 29.3333 222.753 29.52 221.953 29.52C221.259 29.52 220.579 29.3333 219.913 28.96C219.273 28.5867 218.739 28.0533 218.313 27.36C217.886 26.64 217.673 25.7867 217.673 24.8C217.673 23.8133 217.886 22.9733 218.313 22.28C218.739 21.56 219.273 21.0133 219.913 20.64C220.579 20.2667 221.259 20.08 221.953 20.08C222.753 20.08 223.486 20.28 224.153 20.68C224.819 21.0533 225.353 21.6 225.753 22.32C226.153 23.0133 226.353 23.84 226.353 24.8Z" fill="black"/>
<path d="M243.04 2.8H240.96V34H243.04V2.8ZM258.76 24.8C258.76 22.8 258.36 21.0933 257.56 19.68C256.787 18.24 255.72 17.1333 254.36 16.36C253.027 15.5867 251.533 15.2 249.88 15.2C248.333 15.2 246.973 15.6267 245.8 16.48C244.627 17.3067 243.707 18.44 243.04 19.88C242.4 21.32 242.08 22.96 242.08 24.8C242.08 26.6133 242.4 28.2533 243.04 29.72C243.707 31.16 244.627 32.3067 245.8 33.16C246.973 33.9867 248.333 34.4 249.88 34.4C251.533 34.4 253.027 34.0133 254.36 33.24C255.72 32.4667 256.787 31.36 257.56 29.92C258.36 28.48 258.76 26.7733 258.76 24.8ZM256.68 24.8C256.68 26.4 256.36 27.7733 255.72 28.92C255.08 30.0667 254.227 30.9467 253.16 31.56C252.093 32.1467 250.907 32.44 249.6 32.44C248.48 32.44 247.413 32.1067 246.4 31.44C245.387 30.7733 244.573 29.8667 243.96 28.72C243.347 27.5733 243.04 26.2667 243.04 24.8C243.04 23.3333 243.347 22.0267 243.96 20.88C244.573 19.7333 245.387 18.8267 246.4 18.16C247.413 17.4933 248.48 17.16 249.6 17.16C250.907 17.16 252.093 17.4667 253.16 18.08C254.227 18.6667 255.08 19.5333 255.72 20.68C256.36 21.8267 256.68 23.2 256.68 24.8ZM270.385 34.4C272.225 34.4 273.825 34.0267 275.185 33.28C276.571 32.5067 277.785 31.32 278.825 29.72L277.145 28.64C276.318 29.9467 275.371 30.9067 274.305 31.52C273.265 32.1333 272.038 32.44 270.625 32.44C269.291 32.44 268.118 32.12 267.105 31.48C266.118 30.84 265.345 29.9333 264.785 28.76C264.251 27.5867 263.985 26.2133 263.985 24.64C263.985 23.0933 264.265 21.76 264.825 20.64C265.385 19.4933 266.158 18.6133 267.145 18C268.158 17.36 269.345 17.04 270.705 17.04C271.878 17.04 272.931 17.32 273.865 17.88C274.798 18.44 275.531 19.2133 276.065 20.2C276.625 21.1867 276.905 22.3067 276.905 23.56C276.905 23.7733 276.865 24 276.785 24.24C276.731 24.4533 276.678 24.6267 276.625 24.76L277.505 23.52H263.185V25.32H279.065C279.091 25.1867 279.105 25.0267 279.105 24.84C279.131 24.6533 279.145 24.48 279.145 24.32C279.145 22.5333 278.785 20.96 278.065 19.6C277.371 18.2133 276.385 17.1333 275.105 16.36C273.851 15.5867 272.385 15.2 270.705 15.2C268.971 15.2 267.438 15.6133 266.105 16.44C264.771 17.24 263.731 18.36 262.985 19.8C262.238 21.24 261.865 22.8933 261.865 24.76C261.865 26.6267 262.225 28.2933 262.945 29.76C263.691 31.2 264.705 32.3333 265.985 33.16C267.265 33.9867 268.731 34.4 270.385 34.4ZM281.055 15.6V17.56H289.135V15.6H281.055ZM284.055 9.2V34H286.135V9.2H284.055ZM292.964 28.48C292.964 27.5467 293.178 26.7867 293.604 26.2C294.031 25.6133 294.618 25.1733 295.364 24.88C296.138 24.5867 297.044 24.44 298.084 24.44C299.204 24.44 300.271 24.6 301.284 24.92C302.324 25.2133 303.298 25.68 304.204 26.32V25C303.964 24.76 303.564 24.4667 303.004 24.12C302.444 23.7733 301.724 23.4667 300.844 23.2C299.991 22.9067 298.964 22.76 297.764 22.76C295.631 22.76 293.938 23.28 292.684 24.32C291.458 25.36 290.844 26.7733 290.844 28.56C290.844 29.8667 291.138 30.9467 291.724 31.8C292.311 32.6533 293.084 33.3067 294.044 33.76C295.004 34.1867 296.004 34.4 297.044 34.4C298.111 34.4 299.164 34.1733 300.204 33.72C301.244 33.2667 302.111 32.5733 302.804 31.64C303.498 30.7067 303.844 29.52 303.844 28.08L303.364 26.32C303.364 27.68 303.098 28.8267 302.564 29.76C302.031 30.6933 301.324 31.4 300.444 31.88C299.591 32.36 298.644 32.6 297.604 32.6C296.751 32.6 295.964 32.4533 295.244 32.16C294.551 31.84 293.991 31.3733 293.564 30.76C293.164 30.1467 292.964 29.3867 292.964 28.48ZM293.044 18.96C293.391 18.6933 293.818 18.4133 294.324 18.12C294.858 17.8267 295.484 17.5733 296.204 17.36C296.924 17.1467 297.738 17.04 298.644 17.04C299.524 17.04 300.271 17.16 300.884 17.4C301.498 17.64 301.978 17.96 302.324 18.36C302.698 18.76 302.964 19.2133 303.124 19.72C303.284 20.2 303.364 20.7067 303.364 21.24V34H305.444V20.96C305.444 19.7333 305.178 18.6933 304.644 17.84C304.111 16.9867 303.351 16.3333 302.364 15.88C301.378 15.4267 300.191 15.2 298.804 15.2C297.178 15.2 295.804 15.4533 294.684 15.96C293.591 16.44 292.698 16.92 292.004 17.4L293.044 18.96Z" fill="black"/>
</svg>
