<svg viewBox="0 0 14 11" fill="none" xmlns="http://www.w3.org/2000/svg">
<path d="M1.62328 6.68L0.143281 8.64C0.543281 8.94667 0.969948 9.24 1.42328 9.52C1.88995 9.78667 2.39661 9.99333 2.94328 10.14C3.50328 10.3 4.09661 10.38 4.72328 10.38C5.40328 10.38 6.00995 10.26 6.54328 10.02C7.07661 9.78 7.50328 9.44 7.82328 9C8.15661 8.54667 8.34328 8 8.38328 7.36C8.42328 6.84 8.33661 6.40667 8.12328 6.06C7.92328 5.7 7.64328 5.40667 7.28328 5.18C6.93662 4.94 6.54328 4.72667 6.10328 4.54C5.78328 4.42 5.47661 4.30667 5.18328 4.2C4.90328 4.09333 4.67661 3.97333 4.50328 3.84C4.34328 3.69333 4.27661 3.51333 4.30328 3.3C4.31661 3.1 4.40995 2.94667 4.58328 2.84C4.76995 2.72 5.00328 2.66 5.28328 2.66C5.69661 2.66 6.11661 2.78 6.54328 3.02C6.96995 3.26 7.34995 3.55333 7.68328 3.9L8.92328 1.96C8.41661 1.58667 7.84995 1.26667 7.22328 1C6.60995 0.733333 5.92328 0.599999 5.16328 0.599999C4.56328 0.613333 3.99661 0.72 3.46328 0.919999C2.92995 1.10667 2.48995 1.4 2.14328 1.8C1.80995 2.18667 1.62328 2.67333 1.58328 3.26C1.52995 3.79333 1.60328 4.24 1.80328 4.6C2.01661 4.96 2.29661 5.26 2.64328 5.5C3.00328 5.74 3.38328 5.93333 3.78328 6.08C4.10328 6.2 4.38995 6.32 4.64328 6.44C4.90995 6.54667 5.11661 6.68 5.26328 6.84C5.40995 6.98667 5.46995 7.16 5.44328 7.36C5.44328 7.58667 5.34995 7.78 5.16328 7.94C4.97661 8.08667 4.74328 8.16 4.46328 8.16C4.16995 8.17333 3.86995 8.12667 3.56328 8.02C3.25661 7.9 2.94328 7.72667 2.62328 7.5C2.30328 7.27333 1.96995 7 1.62328 6.68ZM9.73047 8.64C9.73047 9.14667 9.9038 9.58 10.2505 9.94C10.6105 10.3 11.0638 10.48 11.6105 10.48C12.1571 10.48 12.6038 10.3 12.9505 9.94C13.3105 9.58 13.4905 9.14667 13.4905 8.64C13.4905 8.13333 13.3105 7.7 12.9505 7.34C12.6038 6.98 12.1571 6.8 11.6105 6.8C11.0638 6.8 10.6105 6.98 10.2505 7.34C9.9038 7.7 9.73047 8.13333 9.73047 8.64Z" fill="white"/>
</svg>
