<svg  viewBox="0 0 230 30" fill="none" xmlns="http://www.w3.org/2000/svg">
<path d="M8.15455 29.7272C6.16819 29.7272 4.29944 29.3863 2.5483 28.7045C1.84262 28.4318 1.15 28.0908 0.470459 27.6818L2.78353 24.409H3.17557C3.54148 24.709 3.95966 24.9818 4.43012 25.2272C5.4233 25.7727 6.67785 26.0454 8.19375 26.0454C9.50057 26.0454 10.4807 25.8408 11.1341 25.4318C11.7875 24.9954 12.1665 24.4363 12.271 23.7545C12.4017 23.1272 12.1796 22.6363 11.6046 22.2818C11.0295 21.8999 10.0756 21.4636 8.74262 20.9727C7.54034 20.5363 6.54716 20.1272 5.76307 19.7454C4.97898 19.3636 4.3125 18.8454 3.76364 18.1908C3.21478 17.509 2.94035 16.6636 2.94035 15.6545C2.94035 15.2999 2.97955 14.9454 3.05796 14.5908C3.39773 12.7363 4.33864 11.2499 5.88069 10.1318C7.42273 9.01357 9.56591 8.45448 12.3102 8.45448C14.0091 8.45448 15.7341 8.79539 17.4852 9.47721C18.0602 9.69539 18.7136 10.0363 19.4455 10.4999L17.1324 13.7727H16.7403C16.3222 13.4181 15.917 13.1454 15.525 12.9545C14.5841 12.409 13.4472 12.1363 12.1142 12.1363C10.9903 12.1363 10.1148 12.3681 9.4875 12.8318C8.88637 13.2954 8.5858 13.8272 8.5858 14.4272C8.5858 14.9999 8.86023 15.4499 9.40909 15.7772C9.98409 16.1045 10.8858 16.4999 12.1142 16.9636C13.3165 17.3999 14.3097 17.809 15.0938 18.1908C15.8778 18.5727 16.5443 19.1045 17.0932 19.7863C17.642 20.4681 17.9165 21.3272 17.9165 22.3636C17.9165 22.7727 17.8903 23.0999 17.8381 23.3454C17.4983 25.309 16.5313 26.8636 14.9369 28.009C13.3426 29.1545 11.0818 29.7272 8.15455 29.7272ZM29.1428 29.7272C23.7587 29.7272 21.0666 27.2181 21.0666 22.1999C21.0666 21.1636 21.1581 20.1272 21.3411 19.0908C21.9422 15.5454 23.1706 12.8863 25.0263 11.1136C26.882 9.34084 29.3127 8.45448 32.3183 8.45448C33.8865 8.45448 35.4286 8.79539 36.9445 9.47721C37.4411 9.69539 38.0161 10.0363 38.6695 10.4999L36.3564 13.7727H35.9644C35.703 13.4999 35.3763 13.2272 34.9842 12.9545C34.2263 12.409 33.2723 12.1363 32.1223 12.1363C30.7632 12.1363 29.6524 12.6681 28.7899 13.7318C27.9274 14.7681 27.274 16.5545 26.8297 19.0908C26.6467 20.1272 26.5553 21.0954 26.5553 21.9954C26.5553 23.4408 26.8558 24.4772 27.457 25.1045C28.0581 25.7318 28.9598 26.0454 30.1621 26.0454C31.3121 26.0454 32.3575 25.7727 33.2985 25.2272C33.7689 24.9818 34.1871 24.709 34.553 24.409H34.945L36.1604 27.6818C35.3763 28.1454 34.6967 28.4863 34.1217 28.7045C32.5013 29.3863 30.8416 29.7272 29.1428 29.7272ZM46.0246 6.20448C45.319 6.20448 44.7309 5.95903 44.2604 5.46812C43.79 4.94993 43.5547 4.3363 43.5547 3.62721C43.5547 2.69993 43.9207 1.88175 44.6525 1.17266C45.3843 0.436297 46.1945 0.0681152 47.0832 0.0681152C47.7888 0.0681152 48.3638 0.31357 48.8082 0.80448C49.2786 1.29539 49.5138 1.90903 49.5138 2.64539C49.5138 3.54539 49.1479 4.36357 48.4161 5.09994C47.6843 5.8363 46.8871 6.20448 46.0246 6.20448ZM39.3991 29.3181L42.8491 8.86357H48.3377L44.8877 29.3181H39.3991ZM58.9336 29.7272C53.4189 29.7272 50.6615 27.2045 50.6615 22.159C50.6615 21.1499 50.753 20.1272 50.9359 19.0908C51.5371 15.5727 52.7393 12.9272 54.5427 11.1545C56.3461 9.35448 58.6069 8.45448 61.3251 8.45448C63.599 8.45448 65.3501 9.08175 66.5785 10.3363C67.833 11.5908 68.4603 13.4318 68.4603 15.859C68.4603 16.7045 68.3819 17.6454 68.2251 18.6818L68.0682 19.7045L66.6961 20.9318H56.1109C56.0064 21.6408 55.9541 22.1318 55.9541 22.4045C55.9541 24.8318 57.2871 26.0454 59.953 26.0454C61.103 26.0454 62.1484 25.7727 63.0893 25.2272C63.5598 24.9818 63.978 24.709 64.3439 24.409H64.7359L65.9512 27.6818C65.1672 28.1454 64.4876 28.4863 63.9126 28.7045C62.2922 29.3863 60.6325 29.7272 58.9336 29.7272ZM63.0109 17.2499C63.1155 16.7318 63.1677 16.1999 63.1677 15.6545C63.1677 14.5363 62.9325 13.6772 62.4621 13.0772C61.9916 12.4499 61.4166 12.1363 60.7371 12.1363C59.8746 12.1363 59.0643 12.5863 58.3064 13.4863C57.5484 14.359 57.0257 15.6136 56.7382 17.2499H63.0109ZM74.2051 8.86357H78.1255L78.0863 11.3181H78.2823C78.6221 10.909 79.1448 10.4318 79.8505 9.8863C81.1835 8.93175 82.5818 8.45448 84.0454 8.45448C86.084 8.45448 87.6392 8.95903 88.7107 9.96812C89.8085 10.9772 90.3573 12.4227 90.3573 14.3045C90.3573 15.0136 90.3051 15.6545 90.2005 16.2272L88.0051 29.3181H82.5164L84.7119 16.2272C84.7903 15.7636 84.8295 15.3681 84.8295 15.0408C84.8295 14.1408 84.6204 13.4727 84.2022 13.0363C83.784 12.5727 83.196 12.3408 82.438 12.3408C81.5232 12.3408 80.6215 12.7499 79.7329 13.5681C79.3409 13.9227 78.988 14.3318 78.6744 14.7954L76.2437 29.3181H70.7551L74.2051 8.86357ZM100.872 29.7272C98.9379 29.7272 97.422 29.2227 96.3243 28.2136C95.2265 27.2045 94.6777 25.8545 94.6777 24.1636C94.6777 23.7272 94.7169 23.2636 94.7953 22.7727L96.5203 12.5454H93.972L94.364 10.0908L101.303 3.95448H103.459L102.636 8.86357H107.145L106.517 12.5454H102.009L100.284 22.7727C100.206 23.1818 100.166 23.5636 100.166 23.9181C100.166 24.6272 100.323 25.159 100.637 25.5136C100.95 25.8681 101.369 26.0454 101.891 26.0454C102.728 26.0454 103.551 25.7727 104.361 25.2272C104.727 24.9818 105.106 24.709 105.498 24.409H105.89L107.106 27.6818C106.348 28.1181 105.694 28.459 105.145 28.7045C103.577 29.3863 102.153 29.7272 100.872 29.7272ZM116.202 6.20448C115.497 6.20448 114.909 5.95903 114.438 5.46812C113.968 4.94993 113.732 4.3363 113.732 3.62721C113.732 2.69993 114.098 1.88175 114.83 1.17266C115.562 0.436297 116.372 0.0681152 117.261 0.0681152C117.966 0.0681152 118.541 0.31357 118.986 0.80448C119.456 1.29539 119.691 1.90903 119.691 2.64539C119.691 3.54539 119.326 4.36357 118.594 5.09994C117.862 5.8363 117.065 6.20448 116.202 6.20448ZM109.577 29.3181L113.027 8.86357H118.515L115.065 29.3181H109.577ZM123.583 12.5454H121.427L122.054 8.86357H124.21L124.485 7.22721C124.825 5.12721 125.779 3.44993 127.347 2.19539C128.915 0.913571 130.901 0.272661 133.306 0.272661C134.56 0.272661 135.867 0.613569 137.226 1.29539C137.618 1.4863 138.154 1.82721 138.834 2.31812L136.521 5.59084H136.129C135.763 5.20903 135.475 4.9363 135.266 4.77266C134.56 4.22721 133.829 3.95448 133.071 3.95448C132.365 3.95448 131.712 4.25448 131.11 4.85448C130.535 5.42721 130.156 6.21812 129.974 7.22721L129.699 8.86357H134.6L133.972 12.5454H129.072L126.249 29.3181H120.76L123.583 12.5454ZM141.509 6.20448C140.803 6.20448 140.215 5.95903 139.745 5.46812C139.274 4.94993 139.039 4.3363 139.039 3.62721C139.039 2.69993 139.405 1.88175 140.137 1.17266C140.868 0.436297 141.679 0.0681152 142.567 0.0681152C143.273 0.0681152 143.848 0.31357 144.292 0.80448C144.763 1.29539 144.998 1.90903 144.998 2.64539C144.998 3.54539 144.632 4.36357 143.9 5.09994C143.168 5.8363 142.371 6.20448 141.509 6.20448ZM134.883 29.3181L138.333 8.86357H143.822L140.372 29.3181H134.883ZM154.222 29.7272C148.838 29.7272 146.146 27.2181 146.146 22.1999C146.146 21.1636 146.238 20.1272 146.42 19.0908C147.022 15.5454 148.25 12.8863 150.106 11.1136C151.961 9.34084 154.392 8.45448 157.398 8.45448C158.966 8.45448 160.508 8.79539 162.024 9.47721C162.52 9.69539 163.095 10.0363 163.749 10.4999L161.436 13.7727H161.044C160.782 13.4999 160.456 13.2272 160.064 12.9545C159.306 12.409 158.352 12.1363 157.202 12.1363C155.843 12.1363 154.732 12.6681 153.869 13.7318C153.007 14.7681 152.353 16.5545 151.909 19.0908C151.726 20.1272 151.635 21.0954 151.635 21.9954C151.635 23.4408 151.935 24.4772 152.536 25.1045C153.138 25.7318 154.039 26.0454 155.242 26.0454C156.392 26.0454 157.437 25.7727 158.378 25.2272C158.848 24.9818 159.267 24.709 159.632 24.409H160.024L161.24 27.6818C160.456 28.1454 159.776 28.4863 159.201 28.7045C157.581 29.3863 155.921 29.7272 154.222 29.7272ZM169.026 2.31812L170.868 0.681751H174.789L173.142 10.2954C173.482 10.0227 173.913 9.72266 174.436 9.39539C175.586 8.76812 176.697 8.45448 177.768 8.45448C179.807 8.45448 181.362 8.95903 182.434 9.96812C183.532 10.9772 184.08 12.4227 184.08 14.3045C184.08 15.0136 184.028 15.6545 183.924 16.2272L181.728 29.3181H176.239L178.435 16.2272C178.513 15.7636 178.553 15.3681 178.553 15.0408C178.553 14.1408 178.343 13.4727 177.925 13.0363C177.507 12.5727 176.919 12.3408 176.161 12.3408C175.246 12.3408 174.345 12.7499 173.456 13.5681C173.064 13.9227 172.711 14.3318 172.397 14.7954L169.967 29.3181H164.478L169.026 2.31812ZM194.399 29.7272C192.36 29.7272 190.792 29.2227 189.694 28.2136C188.623 27.2045 188.087 25.759 188.087 23.8772C188.087 23.1681 188.139 22.5272 188.244 21.9545L190.479 8.86357H195.967L193.733 21.9545C193.654 22.3908 193.615 22.7863 193.615 23.1408C193.615 24.0408 193.824 24.7227 194.242 25.1863C194.66 25.6227 195.248 25.8408 196.006 25.8408C196.921 25.8408 197.823 25.4318 198.712 24.6136C199.104 24.2318 199.456 23.8227 199.77 23.3863L202.24 8.86357H207.729L204.279 29.3181H200.358V26.8636H200.162C199.639 27.4636 199.117 27.9408 198.594 28.2954C197.287 29.2499 195.889 29.7272 194.399 29.7272ZM219.493 29.7272C217.925 29.7272 216.684 29.2499 215.769 28.2954C215.324 27.9136 214.959 27.4363 214.671 26.8636H214.475L213.691 29.3181H209.77L214.318 2.31812L216.161 0.681751H220.081L218.552 9.68175L219.728 9.06812C220.8 8.65903 221.78 8.45448 222.669 8.45448C224.786 8.45448 226.432 9.09539 227.609 10.3772C228.811 11.659 229.412 13.5545 229.412 16.0636C229.412 16.7999 229.32 17.809 229.137 19.0908C228.536 22.5545 227.36 25.1999 225.609 27.0272C223.884 28.8272 221.845 29.7272 219.493 29.7272ZM219.14 25.8408C220.107 25.8408 220.996 25.309 221.806 24.2454C222.643 23.1818 223.257 21.4636 223.649 19.0908C223.858 17.8363 223.962 16.8272 223.962 16.0636C223.962 13.4454 223.009 12.1363 221.101 12.1363C220.447 12.1363 219.702 12.3408 218.866 12.7499C218.526 12.9408 218.212 13.1454 217.925 13.3636L216.239 23.3863C216.344 23.7954 216.553 24.2045 216.866 24.6136C217.494 25.4318 218.252 25.8408 219.14 25.8408Z" fill="black"/>
</svg>
