<svg  viewBox="0 0 15 20" fill="none" xmlns="http://www.w3.org/2000/svg">
<path d="M13.125 20H1.875C0.841667 20 0 19.1592 0 18.125V9.375C0 8.34083 0.841667 7.5 1.875 7.5H13.125C14.1583 7.5 15 8.34083 15 9.375V18.125C15 19.1592 14.1583 20 13.125 20ZM1.875 8.75C1.53083 8.75 1.25 9.03 1.25 9.375V18.125C1.25 18.47 1.53083 18.75 1.875 18.75H13.125C13.4692 18.75 13.75 18.47 13.75 18.125V9.375C13.75 9.03 13.4692 8.75 13.125 8.75H1.875Z" />
<path d="M11.875 8.75C11.53 8.75 11.25 8.47 11.25 8.125V5C11.25 2.9325 9.5675 1.25 7.5 1.25C5.4325 1.25 3.75 2.9325 3.75 5V8.125C3.75 8.47 3.47 8.75 3.125 8.75C2.78 8.75 2.5 8.47 2.5 8.125V5C2.5 2.2425 4.7425 0 7.5 0C10.2575 0 12.5 2.2425 12.5 5V8.125C12.5 8.47 12.22 8.75 11.875 8.75Z" />
<path d="M7.49968 14.1666C6.58051 14.1666 5.83301 13.4191 5.83301 12.4999C5.83301 11.5808 6.58051 10.8333 7.49968 10.8333C8.41885 10.8333 9.16635 11.5808 9.16635 12.4999C9.16635 13.4191 8.41885 14.1666 7.49968 14.1666ZM7.49968 12.0832C7.27051 12.0832 7.08301 12.2699 7.08301 12.4999C7.08301 12.7299 7.27051 12.9166 7.49968 12.9166C7.72885 12.9166 7.91635 12.7299 7.91635 12.4999C7.91635 12.2699 7.72885 12.0832 7.49968 12.0832Z" />
<path d="M7.125 16.5417C6.78 16.5417 6.5 16.2617 6.5 15.9167V13.625C6.5 13.28 6.78 13 7.125 13C7.47 13 7.75 13.28 7.75 13.625V15.9167C7.75 16.2617 7.47 16.5417 7.125 16.5417Z" />
</svg>
