<svg id="Layer_1" enable-background="new 0 0 510 510"  viewBox="0 0 510 510" xmlns="http://www.w3.org/2000/svg"><g><path d="m375.383 210.748v-210.748h-375v510h360c190.087-6.633 202.376-274.26 15-299.252zm104.065 134.252h-44.421c-1.437-30.718-7.633-65.048-21.298-92.469 35.207 17.549 60.636 51.888 65.719 92.469zm-172.41 122.469c-35.207-17.549-60.636-51.888-65.719-92.469h44.421c1.436 30.718 7.633 65.048 21.298 92.469zm-21.298-122.469h-44.421c5.083-40.581 30.512-74.92 65.719-92.469-13.662 27.416-19.861 61.743-21.298 92.469zm45.925-74.367c18.718-40.543 38.724-40.532 57.438 0 8.938 20.107 14.44 46.104 15.886 74.367h-89.209c1.444-28.263 6.947-54.26 15.885-74.367zm-301.282 209.367v-450h315v180.748c-135.6 13.83-183.476 188.148-74.9 269.252zm301.282-30.633c-8.938-20.107-14.44-46.104-15.885-74.367h89.208c-1.445 28.263-6.948 54.26-15.886 74.367-18.718 40.543-38.724 40.532-57.437 0zm82.064 18.102c13.662-27.416 19.86-61.743 21.298-92.469h44.421c-5.083 40.581-30.512 74.92-65.719 92.469z"/><path d="m60.383 60h255v30h-255z"/><path d="m60.383 120h255v30h-255z"/><path d="m60.383 180h105v30h-105z"/><path d="m60.383 240h105v30h-105z"/><path d="m60.383 300h105v30h-105z"/><path d="m60.383 360h105v30h-105z"/><path d="m60.383 420h105v30h-105z"/></g></svg>