<svg width="178" height="133" viewBox="0 0 178 133" fill="none" xmlns="http://www.w3.org/2000/svg">
<path d="M60.0904 123.717L57.3772 126.217L59.5334 122.596C57.8347 119.513 55.0564 116.848 55.0564 116.848C55.0564 116.848 49.2924 122.375 49.2924 126.72C49.2924 131.065 51.873 132.582 55.0564 132.582C58.2397 132.582 60.8203 131.065 60.8203 126.72C60.7845 125.68 60.536 124.658 60.0904 123.717Z" fill="#F2F2F2"/>
<path d="M56.6796 126.352V126.567C56.6669 129.056 56.2474 130.998 55.4243 132.366C55.4127 132.386 55.4 132.405 55.3883 132.425L55.2962 132.369L55.2082 132.314C56.1213 130.837 56.4444 128.75 56.4561 126.578C56.4571 126.508 56.4582 126.437 56.4571 126.366C56.4539 125.447 56.3978 124.517 56.3078 123.614C56.3014 123.544 56.294 123.473 56.2866 123.402C56.1616 122.21 55.9815 121.071 55.7972 120.082C55.7845 120.012 55.7707 119.942 55.7569 119.873C55.4381 118.2 55.1129 116.989 55.0388 116.72C55.0303 116.688 55.025 116.669 55.0239 116.665L55.1246 116.637L55.1256 116.636L55.2273 116.607C55.2284 116.611 55.2464 116.672 55.276 116.784C55.3894 117.204 55.6839 118.344 55.973 119.847C55.9857 119.915 55.9995 119.985 56.0122 120.055C56.1626 120.857 56.3099 121.754 56.4264 122.696C56.4561 122.932 56.4825 123.165 56.5058 123.395C56.5143 123.466 56.5217 123.538 56.5281 123.608C56.6256 124.584 56.676 125.499 56.6796 126.352Z" fill="white"/>
<path d="M55.9731 119.847C55.9021 119.856 55.8301 119.866 55.757 119.873C55.5585 119.894 55.3591 119.904 55.1595 119.904C54.3092 119.905 53.4694 119.715 52.702 119.349C52.6576 119.405 52.6131 119.461 52.5675 119.518C53.3747 119.913 54.2613 120.117 55.1595 120.116C55.3725 120.116 55.5854 120.105 55.7972 120.082C55.8692 120.075 55.9413 120.065 56.0122 120.055C56.5981 119.971 57.1677 119.798 57.7018 119.543C57.6562 119.484 57.6117 119.427 57.5683 119.371C57.0629 119.607 56.5253 119.768 55.9731 119.847V119.847Z" fill="white"/>
<path d="M56.5058 123.396C56.4327 123.4 56.3596 123.402 56.2865 123.402C56.2642 123.403 56.2409 123.403 56.2187 123.403C55.2973 123.403 54.3895 123.18 53.5728 122.753C52.7561 122.326 52.0546 121.708 51.5283 120.951C51.4859 121.013 51.4435 121.076 51.4022 121.139C51.9509 121.905 52.6739 122.529 53.5115 122.96C54.3491 123.39 55.2771 123.615 56.2187 123.615C56.2484 123.615 56.278 123.615 56.3077 123.614C56.3818 123.613 56.4549 123.611 56.528 123.608C57.659 123.55 58.7494 123.167 59.6687 122.505C59.6348 122.442 59.6009 122.38 59.566 122.317C58.6725 122.967 57.6089 123.342 56.5058 123.396V123.396Z" fill="white"/>
<path d="M56.6795 126.352C56.6054 126.359 56.5312 126.363 56.4571 126.366C56.3776 126.369 56.2982 126.371 56.2187 126.371C54.9806 126.37 53.7762 125.967 52.7859 125.223C51.7956 124.48 51.0727 123.435 50.7254 122.245C50.6777 122.331 50.63 122.416 50.5845 122.502C50.9758 123.688 51.7308 124.722 52.7423 125.454C53.7537 126.187 54.9701 126.582 56.2187 126.583C56.2982 126.583 56.3776 126.582 56.456 126.578C56.5312 126.576 56.6054 126.572 56.6795 126.567C58.1772 126.449 59.5744 125.767 60.5882 124.657C60.566 124.579 60.5405 124.501 60.5151 124.423C59.5359 125.541 58.1601 126.233 56.6795 126.352V126.352Z" fill="white"/>
<path d="M161.872 127.522L158.191 127.734L162.152 126.301C162.79 122.839 162.329 119.015 162.329 119.015C162.329 119.015 154.37 119.634 151.619 122.994C148.867 126.355 149.903 129.165 152.365 131.185C154.827 133.204 157.784 133.668 160.535 130.308C161.166 129.48 161.621 128.532 161.872 127.522V127.522Z" fill="#F2F2F2"/>
<path d="M157.565 127.396L157.43 127.562C155.843 129.479 154.289 130.716 152.786 131.251C152.765 131.26 152.743 131.266 152.721 131.274L152.685 131.173L152.652 131.074C154.294 130.511 155.865 129.101 157.249 127.429C157.295 127.376 157.34 127.322 157.385 127.266C157.964 126.553 158.51 125.798 159.012 125.042C159.051 124.984 159.091 124.925 159.13 124.865C159.788 123.864 160.37 122.869 160.853 121.987C160.888 121.925 160.922 121.862 160.955 121.8C161.767 120.303 162.283 119.16 162.396 118.905C162.41 118.875 162.417 118.857 162.419 118.853L162.515 118.895L162.517 118.895L162.614 118.937C162.612 118.941 162.587 118.999 162.539 119.105C162.361 119.502 161.867 120.57 161.139 121.916C161.105 121.977 161.072 122.04 161.037 122.102C160.645 122.818 160.191 123.605 159.685 124.407C159.558 124.609 159.431 124.806 159.304 124.999C159.265 125.059 159.226 125.119 159.186 125.177C158.643 125.994 158.103 126.734 157.565 127.396Z" fill="white"/>
<path d="M161.139 121.916C161.078 121.879 161.016 121.84 160.955 121.8C160.788 121.69 160.627 121.571 160.473 121.445C159.815 120.906 159.285 120.226 158.924 119.456C158.854 119.471 158.784 119.486 158.713 119.502C159.087 120.319 159.643 121.039 160.339 121.609C160.504 121.744 160.675 121.87 160.853 121.987C160.914 122.027 160.976 122.065 161.037 122.102C161.544 122.409 162.094 122.636 162.668 122.778C162.67 122.704 162.672 122.631 162.674 122.56C162.133 122.422 161.616 122.205 161.139 121.916V121.916Z" fill="white"/>
<path d="M159.303 124.999C159.244 124.956 159.186 124.911 159.13 124.865C159.112 124.851 159.094 124.837 159.077 124.823C158.364 124.238 157.803 123.49 157.442 122.641C157.08 121.793 156.929 120.87 157.002 119.95C156.929 119.972 156.857 119.993 156.785 120.016C156.724 120.957 156.888 121.898 157.263 122.762C157.639 123.627 158.214 124.389 158.942 124.987C158.965 125.005 158.988 125.024 159.012 125.042C159.07 125.088 159.128 125.133 159.186 125.177C160.098 125.85 161.184 126.245 162.314 126.317C162.327 126.247 162.341 126.177 162.353 126.106C161.251 126.042 160.191 125.657 159.303 124.999V124.999Z" fill="white"/>
<path d="M157.565 127.396C157.504 127.354 157.444 127.31 157.385 127.266C157.321 127.218 157.258 127.169 157.197 127.119C156.24 126.332 155.564 125.257 155.269 124.053C154.974 122.849 155.076 121.583 155.561 120.442C155.47 120.478 155.379 120.514 155.289 120.551C154.841 121.717 154.77 122.995 155.089 124.204C155.407 125.412 156.098 126.49 157.063 127.283C157.124 127.333 157.186 127.383 157.249 127.429C157.309 127.475 157.369 127.519 157.43 127.562C158.662 128.421 160.175 128.78 161.662 128.565C161.695 128.49 161.724 128.414 161.754 128.337C160.289 128.581 158.786 128.243 157.565 127.396Z" fill="white"/>
<path d="M34.1455 130.019L37.0164 130.019L37.5491 118.876L34.1449 118.936L34.1455 130.019Z" fill="#FFB6B6"/>
<path d="M33.4131 129.081L39.0668 129.081H39.0671C40.0226 129.081 40.939 129.461 41.6147 130.137C42.2904 130.813 42.67 131.73 42.6701 132.687V132.804L33.4133 132.804L33.4131 129.081Z" fill="#2F2E41"/>
<path d="M22.5398 130.019L25.4107 130.019L25.9797 118.876L22.5392 118.936L22.5398 130.019Z" fill="#FFB6B6"/>
<path d="M21.8075 129.081L27.4612 129.081H27.4615C28.417 129.081 29.3334 129.461 30.0091 130.137C30.6848 130.813 31.0644 131.73 31.0645 132.687V132.804L21.8077 132.804L21.8075 129.081Z" fill="#2F2E41"/>
<path d="M50.5055 82.2822C50.4941 81.9493 50.4099 81.623 50.2589 81.3263C50.1079 81.0295 49.8937 80.7695 49.6314 80.5646C49.3691 80.3596 49.0651 80.2148 48.7409 80.1401C48.4166 80.0655 48.0799 80.0629 47.7545 80.1326L43.5629 73.2092L41.7612 77.0099L46.0179 83.0018C46.1711 83.5411 46.5167 84.0054 46.9891 84.3068C47.4615 84.6082 48.0279 84.7257 48.581 84.637C49.1342 84.5483 49.6356 84.2596 49.9903 83.8256C50.345 83.3915 50.5283 82.8424 50.5055 82.2822H50.5055Z" fill="#FFB6B6"/>
<path d="M15.4785 89.5242C15.6741 89.2548 15.8083 88.9457 15.8717 88.6188C15.935 88.2918 15.926 87.955 15.8452 87.6319C15.7644 87.3088 15.6138 87.0074 15.4041 86.7489C15.1943 86.4904 14.9305 86.281 14.6311 86.1356L15.5823 78.0964L11.8258 79.9833L11.4984 87.3281C11.2877 87.8476 11.2746 88.4265 11.4618 88.955C11.649 89.4835 12.0233 89.9249 12.5139 90.1956C13.0045 90.4663 13.5773 90.5474 14.1237 90.4237C14.6701 90.2999 15.1521 89.9799 15.4785 89.5242H15.4785Z" fill="#FFB6B6"/>
<path d="M35.8288 81.3804L37.8618 82.5857C37.8618 82.5857 39.5137 83.6382 38.9582 90.9587C38.4027 98.2792 37.7388 127.608 37.7388 127.608H34.1352L28.2989 92.573L26.1694 127.988L22.3761 127.798C22.3761 127.798 14.626 87.4782 17.9795 83.1023L35.8288 81.3804Z" fill="#2F2E41"/>
<path d="M16.7526 55.474C16.7526 55.474 26.639 52.2928 34.6157 55.2587L33.9627 70.6587L38.883 82.6712C38.883 82.6712 23.2407 88.7443 18.0279 83.6405L19.5482 71.6078L16.7526 55.474Z" fill="#858DA8"/>
<path d="M31.9579 57.0674L34.0297 55.2588C34.0297 55.2588 35.4116 55.2424 36.6009 57.3705C37.7902 59.4985 39.9448 66.3675 39.9448 66.3675L46.8427 78.0622L43.8081 80.1503L32.868 64.8366L31.9579 57.0674Z" fill="#858DA8"/>
<path d="M17.1193 56.2334L17.2606 55.2686C17.2606 55.2686 13.4085 55.5538 13.0826 59.2688C12.7568 62.9839 11.5653 83.947 11.5653 83.947L15.3756 84.7063L19.1661 63.1908L17.1193 56.2334Z" fill="#858DA8"/>
<path d="M30.4737 49.9081L18.9167 52.1859C18.6789 52.2325 18.4324 52.1828 18.2312 52.0476C18.03 51.9125 17.8905 51.703 17.8434 51.4652L16.8625 46.4793C16.5149 44.7077 16.8845 42.8706 17.8898 41.3717C18.8952 39.8728 20.4542 38.8348 22.2239 38.486C23.9937 38.1372 25.8294 38.5061 27.3275 39.5116C28.8256 40.5171 29.8635 42.0769 30.2129 43.848L31.1938 48.8339C31.2404 49.0719 31.1907 49.3187 31.0557 49.5201C30.9207 49.7214 30.7114 49.861 30.4737 49.9081V49.9081Z" fill="#2F2E41"/>
<path d="M25.0804 50.7546C27.8352 50.7546 30.0684 48.5195 30.0684 45.7622C30.0684 43.005 27.8352 40.7698 25.0804 40.7698C22.3256 40.7698 20.0924 43.005 20.0924 45.7622C20.0924 48.5195 22.3256 50.7546 25.0804 50.7546Z" fill="#FFB6B6"/>
<path d="M31.8903 44.0353L24.8234 45.4282L24.5512 44.427L24.3886 45.5139L23.3005 45.7283L22.7609 43.7439L22.4388 45.8982L20.3332 46.3131L20.3136 46.2134C20.0395 44.8119 20.3321 43.3588 21.127 42.1729C21.922 40.987 23.1545 40.1651 24.5542 39.8876L25.5505 39.6913C26.9508 39.4169 28.4026 39.7097 29.5874 40.5054C30.7723 41.3011 31.5934 42.5347 31.8707 43.9356L31.8903 44.0353Z" fill="#2F2E41"/>
<path d="M26.008 51.7552C25.9548 51.7657 25.9008 51.7714 25.8466 51.7725L20.4922 51.8785L18.8081 43.3187L24.5044 42.196L24.3958 42.3884C22.8842 45.0655 25.0932 48.4881 26.5444 50.29C26.6512 50.4218 26.7186 50.5812 26.7388 50.7497C26.7591 50.9183 26.7314 51.0891 26.6589 51.2426C26.5986 51.3734 26.5082 51.4882 26.3951 51.5773C26.282 51.6664 26.1493 51.7274 26.008 51.7552V51.7552Z" fill="#2F2E41"/>
<path d="M102.047 0.0561523H33.0344V36.3249H102.047V0.0561523Z" fill="#F2F2F2"/>
<path d="M102.005 0H32.9924V4.20454H102.005V0Z" fill="#E6E6E6"/>
<path d="M100.755 5.90918H34.5952V34.4128H100.755V5.90918Z" fill="white"/>
<path d="M39.5321 2.78703C39.9158 2.78703 40.227 2.47563 40.227 2.09151C40.227 1.70739 39.9158 1.396 39.5321 1.396C39.1483 1.396 38.8372 1.70739 38.8372 2.09151C38.8372 2.47563 39.1483 2.78703 39.5321 2.78703Z" fill="white"/>
<path d="M42.1698 2.78703C42.5535 2.78703 42.8647 2.47563 42.8647 2.09151C42.8647 1.70739 42.5535 1.396 42.1698 1.396C41.786 1.396 41.4749 1.70739 41.4749 2.09151C41.4749 2.47563 41.786 2.78703 42.1698 2.78703Z" fill="white"/>
<path d="M36.8874 2.78703C37.2712 2.78703 37.5823 2.47563 37.5823 2.09151C37.5823 1.70739 37.2712 1.396 36.8874 1.396C36.5036 1.396 36.1925 1.70739 36.1925 2.09151C36.1925 2.47563 36.5036 2.78703 36.8874 2.78703Z" fill="white"/>
<path d="M45.8666 27.4528C46.5409 27.4528 47.0875 26.9057 47.0875 26.2308C47.0875 25.5559 46.5409 25.0088 45.8666 25.0088C45.1924 25.0088 44.6458 25.5559 44.6458 26.2308C44.6458 26.9057 45.1924 27.4528 45.8666 27.4528Z" fill="#E4E4E4"/>
<path d="M56.6513 24.2523C57.3256 24.2523 57.8722 23.7052 57.8722 23.0303C57.8722 22.3555 57.3256 21.8083 56.6513 21.8083C55.977 21.8083 55.4304 22.3555 55.4304 23.0303C55.4304 23.7052 55.977 24.2523 56.6513 24.2523Z" fill="#E4E4E4"/>
<path d="M67.436 27.4528C68.1103 27.4528 68.6569 26.9057 68.6569 26.2308C68.6569 25.5559 68.1103 25.0088 67.436 25.0088C66.7617 25.0088 66.2151 25.5559 66.2151 26.2308C66.2151 26.9057 66.7617 27.4528 67.436 27.4528Z" fill="#E4E4E4"/>
<path d="M78.2207 11.31C78.8949 11.31 79.4416 10.7628 79.4416 10.088C79.4416 9.41307 78.8949 8.86597 78.2207 8.86597C77.5464 8.86597 76.9998 9.41307 76.9998 10.088C76.9998 10.7628 77.5464 11.31 78.2207 11.31Z" fill="#E4E4E4"/>
<path d="M89.0053 11.1596C89.6796 11.1596 90.2262 10.6125 90.2262 9.93757C90.2262 9.26268 89.6796 8.71558 89.0053 8.71558C88.331 8.71558 87.7844 9.26268 87.7844 9.93757C87.7844 10.6125 88.331 11.1596 89.0053 11.1596Z" fill="#E4E4E4"/>
<path d="M67.4615 26.5045L56.6511 23.1428L45.9886 26.3937L45.7445 26.0677L56.6511 22.6339L67.4102 25.957L78.1016 9.91638L78.1446 9.89885L88.9293 9.87988L89.0813 10.2579L78.3395 10.2595L67.4615 26.5045Z" fill="#E4E4E4"/>
<path d="M113.605 47.5562H48.6604V81.6872H113.605V47.5562Z" fill="#F2F2F2"/>
<path d="M113.566 47.5034H48.6207V51.4602H113.566V47.5034Z" fill="#E6E6E6"/>
<path d="M112.39 52.8359H50.0298V79.9491H112.39V52.8359Z" fill="white"/>
<path d="M54.7749 50.1262C55.1361 50.1262 55.4289 49.8331 55.4289 49.4717C55.4289 49.1102 55.1361 48.8171 54.7749 48.8171C54.4138 48.8171 54.121 49.1102 54.121 49.4717C54.121 49.8331 54.4138 50.1262 54.7749 50.1262Z" fill="white"/>
<path d="M57.2572 50.1262C57.6184 50.1262 57.9112 49.8331 57.9112 49.4717C57.9112 49.1102 57.6184 48.8171 57.2572 48.8171C56.896 48.8171 56.6033 49.1102 56.6033 49.4717C56.6033 49.8331 56.896 50.1262 57.2572 50.1262Z" fill="white"/>
<path d="M52.2863 50.1262C52.6474 50.1262 52.9402 49.8331 52.9402 49.4717C52.9402 49.1102 52.6474 48.8171 52.2863 48.8171C51.9251 48.8171 51.6323 49.1102 51.6323 49.4717C51.6323 49.8331 51.9251 50.1262 52.2863 50.1262Z" fill="white"/>
<path d="M156.96 14.9578H79.9244V55.4431H156.96V14.9578Z" fill="#E6E6E6"/>
<path d="M156.913 14.895H79.8774V19.5884H156.913V14.895Z" fill="#858DA8"/>
<path d="M155.107 21.03H81.6539V53.1835H155.107V21.03Z" fill="white"/>
<path d="M87.1774 18.0061C87.6058 18.0061 87.953 17.6585 87.953 17.2297C87.953 16.801 87.6058 16.4534 87.1774 16.4534C86.749 16.4534 86.4017 16.801 86.4017 17.2297C86.4017 17.6585 86.749 18.0061 87.1774 18.0061Z" fill="white"/>
<path d="M90.1218 18.0061C90.5502 18.0061 90.8975 17.6585 90.8975 17.2297C90.8975 16.801 90.5502 16.4534 90.1218 16.4534C89.6934 16.4534 89.3461 16.801 89.3461 17.2297C89.3461 17.6585 89.6934 18.0061 90.1218 18.0061Z" fill="white"/>
<path d="M84.2254 18.0061C84.6538 18.0061 85.0011 17.6585 85.0011 17.2297C85.0011 16.801 84.6538 16.4534 84.2254 16.4534C83.797 16.4534 83.4497 16.801 83.4497 17.2297C83.4497 17.6585 83.797 18.0061 84.2254 18.0061Z" fill="white"/>
<path d="M118.905 28.0757C118.752 28.096 118.612 28.171 118.511 28.287C118.409 28.4029 118.353 28.5518 118.353 28.706C118.353 28.8602 118.409 29.0091 118.511 29.125C118.612 29.2409 118.752 29.316 118.905 29.3363H144.915C145.068 29.316 145.208 29.2409 145.31 29.125C145.411 29.0091 145.467 28.8602 145.467 28.706C145.467 28.5518 145.411 28.4029 145.31 28.287C145.208 28.171 145.068 28.096 144.915 28.0757H118.905Z" fill="#E6E6E6"/>
<path d="M118.905 42.9417C118.752 42.9619 118.612 43.037 118.511 43.153C118.409 43.2689 118.353 43.4178 118.353 43.572C118.353 43.7261 118.409 43.875 118.511 43.991C118.612 44.1069 118.752 44.182 118.905 44.2023H144.915C145.068 44.182 145.208 44.1069 145.31 43.991C145.411 43.875 145.467 43.7261 145.467 43.572C145.467 43.4178 145.411 43.2689 145.31 43.153C145.208 43.037 145.068 42.9619 144.915 42.9417H118.905Z" fill="#E6E6E6"/>
<path d="M118.905 31.8574C118.752 31.8777 118.612 31.9528 118.511 32.0687C118.409 32.1847 118.353 32.3336 118.353 32.4877C118.353 32.6419 118.409 32.7908 118.511 32.9067C118.612 33.0227 118.752 33.0978 118.905 33.118H130.097C130.25 33.0978 130.39 33.0227 130.492 32.9067C130.593 32.7908 130.649 32.6419 130.649 32.4877C130.649 32.3336 130.593 32.1847 130.492 32.0687C130.39 31.9528 130.25 31.8777 130.097 31.8574H118.905Z" fill="#E6E6E6"/>
<path d="M118.905 35.4624C118.752 35.4827 118.612 35.5578 118.511 35.6737C118.409 35.7897 118.353 35.9386 118.353 36.0927C118.353 36.2469 118.409 36.3958 118.511 36.5117C118.612 36.6277 118.752 36.7027 118.905 36.723H144.915C145.068 36.7027 145.208 36.6277 145.31 36.5117C145.411 36.3958 145.467 36.2469 145.467 36.0927C145.467 35.9386 145.411 35.7897 145.31 35.6737C145.208 35.5578 145.068 35.4827 144.915 35.4624H118.905Z" fill="#E6E6E6"/>
<path d="M118.905 39.2441C118.752 39.2644 118.612 39.3395 118.511 39.4555C118.409 39.5714 118.353 39.7203 118.353 39.8745C118.353 40.0286 118.409 40.1775 118.511 40.2935C118.612 40.4094 118.752 40.4845 118.905 40.5048H130.097C130.25 40.4845 130.39 40.4094 130.492 40.2935C130.593 40.1775 130.649 40.0286 130.649 39.8745C130.649 39.7203 130.593 39.5714 130.492 39.4555C130.39 39.3395 130.25 39.2644 130.097 39.2441H118.905Z" fill="#E6E6E6"/>
<path d="M103.746 43.5119C103.825 43.5121 103.903 43.4967 103.976 43.4667C104.049 43.4366 104.115 43.3925 104.171 43.3368C104.226 43.2811 104.271 43.2149 104.301 43.1421C104.331 43.0692 104.347 42.9911 104.347 42.9123C104.347 42.8334 104.331 42.7553 104.301 42.6824C104.271 42.6095 104.227 42.5433 104.171 42.4876C104.115 42.4318 104.049 42.3876 103.976 42.3575C103.903 42.3274 103.825 42.3119 103.747 42.312H91.5861C91.5073 42.3118 91.4293 42.3272 91.3564 42.3573C91.2835 42.3873 91.2173 42.4314 91.1615 42.4871C91.1057 42.5428 91.0614 42.609 91.0312 42.6819C91.001 42.7547 90.9854 42.8328 90.9854 42.9117C90.9853 42.9906 91.0008 43.0687 91.031 43.1415C91.0611 43.2144 91.1053 43.2806 91.1611 43.3364C91.2168 43.3921 91.283 43.4363 91.3559 43.4665C91.4287 43.4966 91.5068 43.512 91.5856 43.5119H103.746Z" fill="#E4E4E4"/>
<path d="M103.746 39.977C103.905 39.9767 104.057 39.9134 104.169 39.8009C104.281 39.6884 104.344 39.536 104.344 39.3771C104.344 39.2181 104.281 39.0657 104.169 38.9532C104.057 38.8407 103.905 38.7774 103.746 38.7771H91.5861C91.5073 38.7769 91.4293 38.7923 91.3564 38.8224C91.2835 38.8524 91.2173 38.8965 91.1615 38.9522C91.1057 39.0079 91.0614 39.0741 91.0312 39.147C91.001 39.2198 90.9854 39.2979 90.9854 39.3768C90.9853 39.4556 91.0008 39.5338 91.031 39.6066C91.0611 39.6795 91.1053 39.7457 91.1611 39.8015C91.2168 39.8572 91.283 39.9014 91.3559 39.9315C91.4287 39.9617 91.5068 39.9771 91.5856 39.977H103.746Z" fill="#E4E4E4"/>
<path d="M97.6661 28.7661C98.4123 28.7661 99.1418 28.9876 99.7623 29.4026C100.383 29.8175 100.866 30.4073 101.152 31.0974C101.438 31.7875 101.512 32.5468 101.367 33.2793C101.221 34.0119 100.862 34.6848 100.334 35.213C99.8064 35.7411 99.1341 36.1008 98.4022 36.2465C97.6703 36.3922 96.9116 36.3174 96.2222 36.0316C95.5327 35.7458 94.9434 35.2617 94.5288 34.6407C94.1142 34.0197 93.8929 33.2895 93.8929 32.5426V32.5426C93.8941 31.5414 94.292 30.5815 94.9993 29.8735C95.7067 29.1655 96.6657 28.7672 97.6661 28.7661V28.7661Z" fill="#858DA8"/>
<path d="M67.1522 62.1641C67.9675 62.1641 68.6284 61.5026 68.6284 60.6866C68.6284 59.8705 67.9675 59.209 67.1522 59.209C66.3368 59.209 65.6759 59.8705 65.6759 60.6866C65.6759 61.5026 66.3368 62.1641 67.1522 62.1641Z" fill="#E4E4E4"/>
<path d="M90.8716 59.5367C91.0032 59.5365 91.1335 59.5623 91.2552 59.6125C91.3768 59.6628 91.4873 59.7366 91.5805 59.8297C91.6736 59.9227 91.7475 60.0333 91.7979 60.1549C91.8483 60.2766 91.8742 60.407 91.8742 60.5387C91.8742 60.6705 91.8483 60.8009 91.7979 60.9225C91.7475 61.0442 91.6736 61.1547 91.5805 61.2478C91.4873 61.3409 91.3768 61.4147 91.2552 61.4649C91.1335 61.5152 91.0032 61.541 90.8716 61.5408H75.3453C75.2137 61.541 75.0834 61.5152 74.9617 61.4649C74.8401 61.4147 74.7296 61.3409 74.6364 61.2478C74.5433 61.1547 74.4694 61.0442 74.419 60.9225C74.3686 60.8009 74.3427 60.6705 74.3427 60.5387C74.3427 60.407 74.3686 60.2766 74.419 60.1549C74.4694 60.0333 74.5433 59.9227 74.6364 59.8297C74.7296 59.7366 74.8401 59.6628 74.9617 59.6125C75.0834 59.5623 75.2137 59.5365 75.3453 59.5367H90.8716ZM90.8716 59.2913H75.3453C75.0148 59.2913 74.6977 59.4227 74.464 59.6566C74.2302 59.8906 74.0989 60.2079 74.0989 60.5387C74.0989 60.8696 74.2302 61.1869 74.464 61.4208C74.6977 61.6548 75.0148 61.7862 75.3453 61.7862H90.8716C91.2022 61.7862 91.5192 61.6548 91.7529 61.4208C91.9867 61.1869 92.118 60.8696 92.118 60.5387C92.118 60.2079 91.9867 59.8906 91.7529 59.6566C91.5192 59.4227 91.2022 59.2913 90.8716 59.2913V59.2913Z" fill="#E4E4E4"/>
<path d="M84.7452 61.7862H73.0572C72.7266 61.7862 72.4096 61.6548 72.1759 61.4208C71.9421 61.1869 71.8108 60.8696 71.8108 60.5387C71.8108 60.2079 71.9421 59.8906 72.1759 59.6566C72.4096 59.4227 72.7266 59.2913 73.0572 59.2913H84.7452C85.0758 59.2913 85.3928 59.4227 85.6265 59.6566C85.8603 59.8906 85.9916 60.2079 85.9916 60.5387C85.9916 60.8696 85.8603 61.1869 85.6265 61.4208C85.3928 61.6548 85.0758 61.7862 84.7452 61.7862Z" fill="#E4E4E4"/>
<path d="M67.1522 68.2996C67.9675 68.2996 68.6284 67.6381 68.6284 66.8221C68.6284 66.006 67.9675 65.3445 67.1522 65.3445C66.3368 65.3445 65.6759 66.006 65.6759 66.8221C65.6759 67.6381 66.3368 68.2996 67.1522 68.2996Z" fill="#E4E4E4"/>
<path d="M90.8716 65.6722C91.0032 65.672 91.1335 65.6978 91.2552 65.748C91.3768 65.7983 91.4873 65.8721 91.5805 65.9652C91.6736 66.0582 91.7475 66.1688 91.7979 66.2904C91.8483 66.4121 91.8742 66.5425 91.8742 66.6742C91.8742 66.806 91.8483 66.9364 91.7979 67.058C91.7475 67.1797 91.6736 67.2902 91.5805 67.3833C91.4873 67.4764 91.3768 67.5502 91.2552 67.6004C91.1335 67.6507 91.0032 67.6765 90.8716 67.6763H75.3453C75.2137 67.6765 75.0834 67.6507 74.9617 67.6004C74.8401 67.5502 74.7296 67.4764 74.6364 67.3833C74.5433 67.2902 74.4694 67.1797 74.419 67.058C74.3686 66.9364 74.3427 66.806 74.3427 66.6742C74.3427 66.5425 74.3686 66.4121 74.419 66.2904C74.4694 66.1688 74.5433 66.0582 74.6364 65.9652C74.7296 65.8721 74.8401 65.7983 74.9617 65.748C75.0834 65.6978 75.2137 65.672 75.3453 65.6722H90.8716ZM90.8716 65.4268H75.3453C75.0148 65.4268 74.6977 65.5582 74.464 65.7921C74.2302 66.0261 74.0989 66.3434 74.0989 66.6742C74.0989 67.0051 74.2302 67.3224 74.464 67.5563C74.6977 67.7903 75.0148 67.9217 75.3453 67.9217H90.8716C91.2022 67.9217 91.5192 67.7903 91.7529 67.5563C91.9867 67.3224 92.118 67.0051 92.118 66.6742C92.118 66.3434 91.9867 66.0261 91.7529 65.7921C91.5192 65.5582 91.2022 65.4268 90.8716 65.4268V65.4268Z" fill="#E4E4E4"/>
<path d="M89.1589 67.9217H73.0572C72.7266 67.9217 72.4096 67.7903 72.1758 67.5563C71.9421 67.3224 71.8108 67.0051 71.8108 66.6742C71.8108 66.3434 71.9421 66.0261 72.1758 65.7921C72.4096 65.5582 72.7266 65.4268 73.0572 65.4268H89.1589C89.4892 65.4272 89.8058 65.5588 90.0392 65.7927C90.2726 66.0266 90.4037 66.3437 90.4037 66.6742C90.4037 67.0048 90.2726 67.3219 90.0392 67.5558C89.8058 67.7897 89.4892 67.9213 89.1589 67.9217V67.9217Z" fill="#E4E4E4"/>
<path d="M67.1522 74.4353C67.9675 74.4353 68.6284 73.7738 68.6284 72.9578C68.6284 72.1418 67.9675 71.4802 67.1522 71.4802C66.3368 71.4802 65.6759 72.1418 65.6759 72.9578C65.6759 73.7738 66.3368 74.4353 67.1522 74.4353Z" fill="#E4E4E4"/>
<path d="M90.8716 71.8079C91.1371 71.8079 91.3918 71.9135 91.5795 72.1014C91.7673 72.2893 91.8728 72.5442 91.8728 72.81C91.8728 73.0757 91.7673 73.3306 91.5795 73.5185C91.3918 73.7064 91.1371 73.812 90.8716 73.812H75.3453C75.0798 73.812 74.8251 73.7064 74.6374 73.5185C74.4496 73.3306 74.3441 73.0757 74.3441 72.81C74.3441 72.5442 74.4496 72.2893 74.6374 72.1014C74.8251 71.9135 75.0798 71.8079 75.3453 71.8079H90.8716ZM90.8716 71.5625H75.3453C75.0148 71.5625 74.6977 71.6939 74.464 71.9279C74.2302 72.1618 74.0989 72.4791 74.0989 72.81C74.0989 73.1408 74.2302 73.4581 74.464 73.6921C74.6977 73.926 75.0148 74.0574 75.3453 74.0574H90.8716C91.2022 74.0574 91.5192 73.926 91.7529 73.6921C91.9867 73.4581 92.118 73.1408 92.118 72.81C92.118 72.4791 91.9867 72.1618 91.7529 71.9279C91.5192 71.6939 91.2022 71.5625 90.8716 71.5625V71.5625Z" fill="#E4E4E4"/>
<path d="M90.9269 74.0575H73.0572C72.7266 74.0575 72.4096 73.926 72.1758 73.6921C71.9421 73.4581 71.8108 73.1408 71.8108 72.81C71.8108 72.4791 71.9421 72.1618 72.1758 71.9279C72.4096 71.6939 72.7266 71.5625 73.0572 71.5625H90.9269C91.2575 71.5625 91.5745 71.6939 91.8083 71.9279C92.042 72.1618 92.1733 72.4791 92.1733 72.81C92.1733 73.1408 92.042 73.4581 91.8083 73.6921C91.5745 73.926 91.2575 74.0575 90.9269 74.0575V74.0575Z" fill="#E4E4E4"/>
<path d="M137.387 88.9903C137.568 88.7753 137.699 88.5235 137.771 88.2523C137.844 87.9812 137.856 87.6975 137.807 87.4211C137.759 87.1447 137.65 86.8823 137.489 86.6526C137.328 86.4228 137.118 86.2312 136.875 86.0912L138.15 79.3887L134.88 80.7525L134.171 86.9083C133.963 87.3326 133.918 87.8185 134.044 88.2739C134.17 88.7293 134.459 89.1225 134.855 89.3792C135.252 89.6358 135.728 89.738 136.195 89.6663C136.662 89.5946 137.086 89.3541 137.387 88.9903V88.9903Z" fill="#FFB7B7"/>
<path d="M153.691 130.118L150.922 130.118L149.605 119.429L153.691 119.429L153.691 130.118Z" fill="#FFB7B7"/>
<path d="M154.397 132.804L145.47 132.804V132.691C145.47 131.769 145.836 130.884 146.487 130.232C147.139 129.58 148.023 129.213 148.944 129.213H148.945L154.397 129.213L154.397 132.804Z" fill="#2F2E41"/>
<path d="M138.56 130.118L135.791 130.118L134.474 119.429L138.561 119.429L138.56 130.118Z" fill="#FFB7B7"/>
<path d="M138.589 132.804L129.661 132.804V132.691C129.661 131.769 130.027 130.884 130.679 130.232C131.331 129.58 132.215 129.213 133.136 129.213H133.136L138.589 129.213L138.589 132.804Z" fill="#2F2E41"/>
<path d="M138.333 84.9741L135.623 91.2231L133.388 127.14L139.034 126.914L140.575 109.792L145.332 94.5423L148.067 111.543L149.196 126.461L153.868 126.664L155.729 84.9741H138.333Z" fill="#2F2E41"/>
<path d="M151.88 54.1396L144.025 54.3363L139.414 56.7057L139.161 74.1866L136.285 86.2557C136.285 86.2557 154.255 87.4935 156.739 85.6852L153.803 71.8972L157.74 56.9962L151.88 54.1396Z" fill="#858DA8"/>
<path d="M140.253 56.9788L139.414 56.7056C139.414 56.7056 136.752 58.4151 137.006 62.5483C137.006 62.5483 136.906 64.6871 137.001 66.1105C137.11 67.7432 133.839 83.9672 133.839 83.9672H138.582L140.614 69.275L140.253 56.9788Z" fill="#858DA8"/>
<path d="M157.617 89.2163C157.437 89.0014 157.306 88.7495 157.233 88.4784C157.161 88.2072 157.148 87.9235 157.197 87.6471C157.246 87.3707 157.355 87.1084 157.516 86.8786C157.677 86.6488 157.886 86.4572 158.129 86.3172L156.854 79.6147L160.124 80.9786L160.834 87.1343C161.042 87.5586 161.087 88.0445 160.961 88.4999C160.835 88.9553 160.546 89.3486 160.149 89.6052C159.753 89.8618 159.276 89.964 158.81 89.8923C158.343 89.8206 157.919 89.5801 157.617 89.2163V89.2163Z" fill="#FFB7B7"/>
<path d="M156.559 57.2049L157.398 56.9316C157.398 56.9316 160.059 58.6412 159.806 62.7744C159.806 62.7744 159.906 64.9132 159.81 66.3366C159.701 67.9693 161.165 84.1933 161.165 84.1933H156.423L154.39 69.5011L156.559 57.2049Z" fill="#858DA8"/>
<path d="M153.808 46.8056C153.808 47.8835 153.488 48.9371 152.89 49.8333C152.292 50.7295 151.441 51.428 150.447 51.8405C149.452 52.253 148.357 52.3609 147.301 52.1506C146.244 51.9403 145.274 51.4213 144.513 50.6592C143.751 49.897 143.233 48.926 143.023 47.8688C142.813 46.8117 142.92 45.716 143.333 44.7202C143.745 43.7244 144.443 42.8732 145.338 42.2744C146.233 41.6756 147.286 41.356 148.363 41.356V41.356C149.076 41.3542 149.783 41.493 150.442 41.7646C151.102 42.0361 151.702 42.435 152.207 42.9386C152.713 43.4421 153.115 44.0404 153.389 44.6992C153.664 45.3581 153.806 46.0646 153.808 46.7785C153.808 46.7875 153.808 46.7966 153.808 46.8056Z" fill="#FFB7B7"/>
<path d="M142.936 39.4856C143.574 38.1129 144.808 38.3843 145.888 38.8496C147.255 38.5461 148.555 37.6375 150.028 38.1748C151.479 40.2869 156.35 39.6655 155.314 43.104C155.312 43.9279 156.863 43.4484 156.592 44.7978C157.413 47.3947 153.628 52.3129 151.454 51.2772C151.992 50.2913 153.22 48.0518 151.357 47.8297C147.351 51.5605 150.944 40.7254 145.91 43.8764C144.244 45.403 141.962 41.0126 142.936 39.4856Z" fill="#2F2E41"/>
<path d="M177.794 133H0.206019C0.151379 133 0.0989772 132.978 0.0603413 132.94C0.0217053 132.901 0 132.849 0 132.794C0 132.739 0.0217053 132.687 0.0603413 132.648C0.0989772 132.609 0.151379 132.588 0.206019 132.588H177.794C177.849 132.588 177.901 132.609 177.94 132.648C177.978 132.687 178 132.739 178 132.794C178 132.849 177.978 132.901 177.94 132.94C177.901 132.978 177.849 133 177.794 133Z" fill="#CACACA"/>
</svg>
